# xmcd CD database file
#
# Track frame offsets:
#	150
#	17732
#	32090
#	49897
#	68920
#	87812
#	98110
#	113715
#	131272
#	158587
#	172047
#	190240
#	205725
#	224250
#	245707
#
# Disc length: 3796 seconds
#
# Revision: 0
# Processed by: cddbd v1.5.1PL0 Copyright (c) Steve Scherf et al.
# Submitted via: CDex 1.51
#
DISCID=ca0ed20f
DTITLE=Various Artist - THE BEST WARNER BRIGHTEST COLLECTION Disk 4
DYEAR=1900
DGENRE=Pop
TTITLE0=Christopher Cross - Arthur's Theme(Best that you can do)
TTITLE1=Nicolette Larson - Lotta love
TTITLE2=Grover Washington, Jr. - Just the two of us
TTITLE3=TAKE 6 - Biggest part of me
TTITLE4=America - A horse with no name
TTITLE5=Timothy B. Schmit - So much in love
TTITLE6=Sixpence None The Richer - Kiss me
TTITLE7=Manhattan Transfer - a)Twilight Zone b)Twilight Tone
TTITLE8=Donald Fagen - I.G.Y.
TTITLE9=Vanilla Fudge - You keep me hangin' on
TTITLE10=The Braids - Bohemian Rhapsody
TTITLE11=Deep Purple - Black night
TTITLE12=Randy Crawford - Almaz
TTITLE13=Damn Yankees - High enough
TTITLE14=Prince and The Revolution - Purple rain
EXTD=
EXTT0=
EXTT1=
EXTT2=
EXTT3=
EXTT4=
EXTT5=
EXTT6=
EXTT7=
EXTT8=
EXTT9=
EXTT10=
EXTT11=
EXTT12=
EXTT13=
EXTT14=
PLAYORDER=
